<svg width="96" height="81" viewBox="0 0 96 81" fill="none" xmlns="http://www.w3.org/2000/svg">
<path d="M40.3419 0.000784008H5.85799C2.62669 0.000784008 0 2.63218 0 5.8627V74.4128C0 77.6441 2.62689 80.2708 5.85799 80.2708H40.3419C43.5732 80.2708 46.2038 77.6439 46.2038 74.4128V5.8627C46.2046 2.6314 43.5732 0 40.3419 0V0.000784008ZM11.7687 3.216H35.0058V5.2981H11.7687V3.216ZM42.9894 74.4136C42.9894 75.8722 41.8012 77.0566 40.3427 77.0566L5.85878 77.0574C4.40021 77.0574 3.21581 75.873 3.21581 74.4144V5.86425C3.21581 4.40568 4.40013 3.21755 5.85878 3.21755H8.55293V6.00898C8.55293 7.38941 9.67827 8.51467 11.0586 8.51467H35.7155C37.0959 8.51467 38.2212 7.38933 38.2212 6.00898L38.2204 3.21677H40.3415C41.8001 3.21677 42.9882 4.40492 42.9882 5.86346L42.9894 74.4136Z" fill="black"/>
<path d="M28.0459 70.8885H18.733C17.8467 70.8885 17.1251 71.6102 17.1251 72.4965C17.1251 73.3828 17.8467 74.1044 18.733 74.1044H28.0459C28.9322 74.1044 29.6538 73.3828 29.6538 72.4965C29.653 71.6102 28.9314 70.8885 28.0459 70.8885Z" fill="black"/>
<path d="M90.142 0.000784008H55.6541C52.4228 0.000784008 49.7961 2.63218 49.7961 5.8627V74.4128C49.7961 77.6441 52.423 80.2708 55.6541 80.2708H90.142C93.3733 80.2708 96 77.6439 96 74.4128V5.8627C96 2.6314 93.3725 0 90.1412 0L90.142 0.000784008ZM61.5649 3.216H84.8019V4.85075L61.5649 4.85152V3.216ZM92.7855 74.4136C92.7855 75.8722 91.6012 77.0566 90.1426 77.0566L55.6547 77.0574C54.1962 77.0574 53.0118 75.873 53.0118 74.4144V5.86425C53.0118 4.40568 54.1961 3.21755 55.6547 3.21755H58.3489V5.55871C58.3489 6.94297 59.4742 8.06833 60.8546 8.06833H85.5114C86.8919 8.06833 88.0171 6.94299 88.0171 5.55871L88.0164 3.21696H90.1414C91.6 3.21696 92.7844 4.40512 92.7844 5.86366L92.7855 74.4136Z" fill="black"/>
<path d="M77.84 70.8885H68.5272C67.6409 70.8885 66.9193 71.6102 66.9193 72.4965C66.9193 73.3828 67.6409 74.1044 68.5272 74.1044H77.84C78.7264 74.1044 79.448 73.3828 79.448 72.4965C79.4472 71.6102 78.7264 70.8885 77.84 70.8885Z" fill="black"/>
<path d="M23.1 21.5827C13.5204 21.5827 5.72504 29.378 5.72504 38.9576C5.72504 48.5332 13.5204 56.3286 23.1 56.3286C32.6795 56.3286 40.4749 48.5332 40.4749 38.9576C40.4749 29.378 32.6795 21.5827 23.1 21.5827ZM23.1 53.1132C15.293 53.1132 8.94025 46.7649 8.94025 38.9572C8.94025 31.1503 15.2924 24.7975 23.1 24.7975C30.9069 24.7975 37.2597 31.1497 37.2597 38.9572C37.2597 46.7641 30.9067 53.1132 23.1 53.1132Z" fill="black"/>
<path d="M73.1825 21.5827C63.6068 21.5827 55.8115 29.378 55.8115 38.9576C55.8115 48.5332 63.6068 56.3286 73.1825 56.3286C82.762 56.3286 90.5574 48.5332 90.5574 38.9576C90.5574 29.378 82.762 21.5827 73.1825 21.5827ZM73.1825 53.1132C65.3755 53.1132 59.0265 46.7649 59.0265 38.9572C59.0265 31.1503 65.3748 24.7975 73.1825 24.7975C80.9894 24.7975 87.3422 31.1497 87.3422 38.9572C87.3414 46.7641 80.9892 53.1132 73.1825 53.1132Z" fill="black"/>
<path d="M30.8796 30.9587C30.2523 30.3313 29.2326 30.3313 28.6052 30.9587L22.9976 36.5662L17.5548 31.1234C16.9274 30.496 15.9078 30.496 15.2803 31.1234C14.6529 31.7508 14.6529 32.7704 15.2803 33.3979L20.7231 38.8407L15.5154 44.0484C14.888 44.6758 14.888 45.6954 15.5154 46.3229C15.8295 46.6362 16.2409 46.7932 16.653 46.7932C17.0652 46.7932 17.4765 46.6362 17.7906 46.3229L22.9983 41.1152L28.5706 46.6874C28.8847 47.0008 29.296 47.1578 29.7082 47.1578C30.1203 47.1578 30.5317 47.0007 30.8458 46.6874C31.4731 46.06 31.4731 45.0404 30.8458 44.413L25.2735 38.8407L30.8811 33.2331C31.5069 32.605 31.5069 31.5861 30.8795 30.9587H30.8796Z" fill="black"/>
<path d="M77.9577 30.8606L69.3663 42.8678L67.1471 40.205C66.5787 39.5148 65.5553 39.4405 64.885 39.9974C64.2024 40.5658 64.1128 41.5816 64.6774 42.2595L68.2303 46.5181C68.536 46.8865 68.991 47.0987 69.466 47.0987C69.4851 47.0987 69.505 47.0987 69.5249 47.0949C70.0229 47.0796 70.4817 46.8283 70.7721 46.4246L80.5715 32.7275C81.0893 32.0059 80.9208 31.0062 80.1992 30.4883C79.4829 29.9705 78.4756 30.1306 77.9577 30.8606L77.9577 30.8606Z" fill="black"/>
</svg>
