<svg width="85" height="80" viewBox="0 0 85 80" fill="none" xmlns="http://www.w3.org/2000/svg">
<path d="M20.0633 36.6535C20.0633 36.8974 20.1602 37.1316 20.3328 37.3036C20.5054 37.4762 20.739 37.5731 20.9828 37.5731C21.4519 37.5731 25.5274 37.4261 26.9443 35.4753V35.4759C27.4531 34.7656 27.5802 33.8505 27.285 33.0285C27.2189 32.7885 27.0585 32.5857 26.8397 32.4664C26.6215 32.3464 26.3642 32.3207 26.1261 32.3939C25.8887 32.4677 25.6904 32.6345 25.5781 32.8559C25.4651 33.0779 25.4472 33.3359 25.5274 33.5714C25.6467 33.8428 25.6153 34.1573 25.4446 34.3992C24.8189 35.2642 22.4452 35.7057 20.9462 35.7333C20.4527 35.7532 20.0626 36.1594 20.0632 36.6535H20.0633Z" fill="black"/>
<path d="M69.0045 57.0929C70.9304 53.6084 71.6727 49.5933 71.1222 45.6507C70.5716 41.7074 68.757 38.0496 65.9508 35.2262C64.032 33.3107 61.7092 31.8488 59.1525 30.9479V29.5586V29.5593C59.1487 23.3687 57.2031 17.3361 53.5896 12.3102C49.9762 7.28436 44.8766 3.51947 39.0101 1.54503C33.143 -0.429579 26.8048 -0.513524 20.8887 1.30503C14.9715 3.12292 9.77445 6.75179 6.02878 11.6801C2.28311 16.6084 0.178398 22.5877 0.010836 28.7747C-0.156644 34.9627 1.62088 41.0473 5.09437 46.1699C8.56735 51.2939 13.5604 55.1988 19.3703 57.335C25.1803 59.4706 31.5133 59.7305 37.4785 58.0762C39.9844 62.0144 43.8988 64.8475 48.4228 65.9961C52.9468 67.1454 57.7391 66.5236 61.8204 64.2584L76.1902 78.6094C77.086 79.5001 78.2981 80 79.5616 80C80.8251 80 82.0366 79.5001 82.9331 78.6094L83.338 78.1955C84.2325 77.3036 84.7349 76.092 84.7349 74.8285C84.7349 73.5651 84.2325 72.3542 83.338 71.4615L69.0045 57.0929ZM29.6028 57.295V57.2956C24.115 57.2976 18.749 55.6715 14.1851 52.6235C9.62069 49.5753 6.06311 45.2419 3.96218 40.1718C1.86059 35.1017 1.31059 29.5221 2.38102 24.1394C3.45138 18.756 6.094 13.8118 9.97503 9.93077C13.8554 6.04974 18.8005 3.40718 24.183 2.33676C29.5663 1.2664 35.1458 1.81697 40.216 3.91792C45.2861 6.01885 49.6196 9.57642 52.6677 14.1408C55.7152 18.7046 57.3412 24.0705 57.3394 29.559V30.4054C54.1815 29.627 50.8743 29.7002 47.7536 30.6166C47.6945 28.5452 46.8532 26.5732 45.3985 25.0972C46.5022 20.3961 42.795 17.3788 40.2096 16.2102C40.0717 14.9312 39.5012 12.0244 36.9806 10.4605C34.2668 8.78634 30.7432 9.8438 29.6209 10.2583C28.4985 9.84444 25.0211 8.78627 22.2611 10.4605C19.7404 12.0243 19.1701 14.9313 19.041 16.2102C16.4465 17.3787 12.7395 20.3959 13.8431 25.0972C12.6104 26.3761 9.51933 30.424 13.3098 35.8054H13.3105C12.9139 37.3429 13.0705 38.971 13.752 40.4051C14.5483 41.8053 15.8747 42.8262 17.4321 43.2383C18.1957 45.2621 20.3211 48.2981 24.0833 48.2056V48.2063C25.3289 49.0046 26.7707 49.4435 28.2505 49.4756C28.7119 49.4717 29.1714 49.4198 29.6212 49.319C30.0743 49.4198 30.5369 49.4724 31.0009 49.4756C32.2901 49.457 33.5549 49.1188 34.681 48.4912C34.7259 51.2249 35.3862 53.9137 36.6126 56.3566C34.3229 56.9682 31.964 57.2832 29.5935 57.2954L29.6028 57.295ZM41.0746 33.2581C41.4236 33.2568 41.7695 33.3197 42.0962 33.4416C41.3518 33.9851 40.6478 34.5819 39.9895 35.2268C39.6584 35.5669 39.3548 35.9166 39.0693 36.2753C38.9294 35.9442 38.6098 35.7254 38.2504 35.7138C36.7604 35.7138 34.3778 35.2447 33.7521 34.3797V34.3804C33.5814 34.1378 33.5499 33.8234 33.6693 33.5519C33.7501 33.3171 33.7315 33.0584 33.6192 32.8371C33.5063 32.615 33.308 32.4482 33.0706 32.375C32.8325 32.3012 32.5752 32.3275 32.357 32.4469C32.1388 32.5662 31.9784 32.7697 31.9123 33.0097C31.6081 33.8246 31.7179 34.7365 32.2062 35.4566C33.5217 37.2963 37.1736 37.5171 38.0201 37.5544H38.0208C36.1636 40.1674 35.0247 43.2219 34.718 46.4132C34.435 46.356 34.1777 46.211 33.9819 45.9993C33.7175 45.6226 33.6142 45.1554 33.697 44.7024C33.7426 44.1941 33.3678 43.745 32.8596 43.6994C32.352 43.6538 31.9028 44.0286 31.8572 44.5368C31.7148 45.4955 31.9824 46.4704 32.5933 47.2231L32.7774 47.3976H32.7768C32.053 47.6729 31.2765 47.7833 30.5045 47.7198V23.535C31.4331 23.7685 32.2738 24.2671 32.9243 24.9698C32.9782 25.0635 32.9782 25.1796 32.9243 25.2733C32.8377 25.5024 32.8467 25.7572 32.9487 25.9799C33.0507 26.2025 33.2368 26.3751 33.4666 26.4599C33.5692 26.5009 33.6783 26.5228 33.7887 26.5247C34.1737 26.526 34.5189 26.2873 34.6537 25.9266C34.8879 25.326 34.8436 24.6522 34.5337 24.0869C33.779 22.6796 31.5529 21.8884 30.4858 21.5849L30.4864 16.6169C31.4663 17.1206 32.5591 17.3645 33.6596 17.3253H33.8989C34.4072 17.3253 34.8191 16.9134 34.8191 16.4051C34.8191 15.8969 34.4072 15.4856 33.8989 15.4856C30.7527 15.5318 30.5505 13.9859 30.5319 13.83V11.9158C31.6453 11.5571 34.2114 10.9314 36.0519 12.0538C38.398 13.5073 38.4436 16.8377 38.4436 16.8743V16.9385V16.9391C38.536 17.5423 38.4071 18.1584 38.0804 18.6737C37.7544 19.1897 37.2526 19.5702 36.668 19.7447C36.1887 19.8128 35.8441 20.2414 35.8806 20.7246C35.9166 21.2078 36.3215 21.58 36.806 21.5755C36.8856 21.5851 36.9658 21.5851 37.0453 21.5755C37.8167 21.3862 38.5155 20.9762 39.0577 20.3967C39.6 19.8166 39.9619 19.0915 40.0999 18.3099C41.783 19.2301 44.5802 21.4376 43.4302 25.1543V25.2737C43.3661 25.5958 42.8412 26.0739 41.2222 25.8069V25.8076C40.7217 25.7241 40.2487 26.0617 40.164 26.5616C40.0806 27.0621 40.4182 27.535 40.9187 27.6197C41.3076 27.6826 41.7016 27.7166 42.0962 27.7205C42.8868 27.766 43.6703 27.5459 44.3223 27.0955L44.5245 26.9113C45.5467 28.135 46.0222 29.7245 45.84 31.3083C45.1469 31.6016 44.4744 31.9398 43.8256 32.3203C43.0344 31.7139 42.0629 31.3898 41.0656 31.4007C40.5574 31.4007 40.1454 31.8127 40.1454 32.3203C40.1454 32.8285 40.5574 33.2405 41.0656 33.2405L41.0746 33.2581ZM25.261 17.3149H25.5093C26.6073 17.3527 27.6968 17.1089 28.6736 16.607V21.5744C27.6064 21.878 25.3803 22.6692 24.6257 24.0764H24.6263C24.3189 24.6436 24.2785 25.3168 24.5159 25.9168C24.6494 26.2742 24.9895 26.5116 25.3713 26.5142C25.4843 26.511 25.5959 26.4892 25.7024 26.45C25.9328 26.3634 26.1189 26.1882 26.219 25.9636C26.3191 25.739 26.3255 25.4836 26.2357 25.2539C26.185 25.1596 26.185 25.0453 26.2357 24.9504C26.8877 24.2496 27.7276 23.7516 28.6555 23.5155V47.6724C27.888 47.7269 27.1179 47.6108 26.4011 47.3323L26.5853 47.1577V47.1571C27.2007 46.4069 27.4676 45.4302 27.3213 44.4708C27.2758 43.9632 26.8266 43.5878 26.3183 43.634C25.8108 43.6796 25.436 44.1288 25.4815 44.6364C25.5695 45.0901 25.4661 45.5592 25.196 45.9339C24.9521 46.1874 24.6261 46.3472 24.2764 46.3844C20.4126 46.7155 19.0785 42.438 19.0233 42.2537C18.9303 41.9456 18.6826 41.7082 18.3701 41.628C17.1303 41.4047 16.0452 40.6616 15.3893 39.586C14.8637 38.4278 14.7912 37.1148 15.1871 35.9059V35.8321C15.1871 35.8321 15.7852 33.2377 18.1127 33.2377V33.2383C18.6203 33.2383 19.0323 32.8264 19.0323 32.3181C19.0323 31.8105 18.6203 31.3986 18.1127 31.3986C16.4802 31.3941 14.9677 32.2552 14.1381 33.6618C13.5207 32.6165 13.2403 31.4063 13.3359 30.1965C13.4309 28.9863 13.8981 27.8351 14.672 26.9002C14.7361 26.9554 14.7913 27.0195 14.8651 27.0747C15.5145 27.5323 16.2974 27.762 17.0912 27.728C17.4859 27.7241 17.8799 27.6901 18.2688 27.6266C18.7693 27.5425 19.1062 27.0689 19.0234 26.5684C18.9387 26.0685 18.4658 25.731 17.9652 25.8144C16.3552 26.0814 15.8219 25.6123 15.7667 25.2812V25.226V25.1156C14.6258 21.4361 17.4133 19.2279 19.0971 18.2712V18.2705C19.221 19.0521 19.5694 19.7805 20.1007 20.367C20.6314 20.9536 21.3213 21.3726 22.0868 21.5735C22.1664 21.5824 22.2466 21.5824 22.3262 21.5735C22.8338 21.6395 23.2997 21.2815 23.3658 20.7732C23.4312 20.265 23.0731 19.7998 22.5649 19.7337C21.9938 19.5547 21.5042 19.1792 21.1827 18.6742C20.8612 18.1692 20.7283 17.5673 20.8079 16.9736C20.8118 16.9525 20.8118 16.9306 20.8079 16.9095C20.8079 16.9095 20.8541 13.5425 23.2091 12.0889C25.0489 10.9666 27.5605 11.5923 28.674 11.951V13.8459C28.674 14.048 28.4256 15.5752 25.307 15.5112H25.3063C24.7987 15.5112 24.3867 15.9225 24.3867 16.4307C24.4054 16.9075 24.7846 17.2906 25.2607 17.3137L25.261 17.3149ZM41.2952 59.8723C38.1977 56.7754 36.4574 52.5755 36.4567 48.1952C36.4561 43.8156 38.1951 39.6151 41.2921 36.5175C44.389 33.4205 48.5896 31.6803 52.9698 31.6803C57.3494 31.6803 61.55 33.4207 64.6469 36.5175C67.7439 39.6149 69.4834 43.8156 69.4829 48.1952C69.4823 52.5755 67.7412 56.7754 64.6438 59.8723C61.5411 62.9563 57.3443 64.6876 52.97 64.6876C48.5948 64.6876 44.398 62.9563 41.2955 59.8723H41.2952ZM82.0407 76.8733L81.6268 77.2782L81.6262 77.2776C81.0794 77.8269 80.3363 78.1356 79.5612 78.1356C78.7861 78.1356 78.0429 77.8269 77.4963 77.2776L63.4853 63.2397C65.2744 62.0268 66.817 60.4842 68.0298 58.6951L82.0408 72.733C82.5875 73.283 82.8949 74.0274 82.8949 74.8033C82.8949 75.5792 82.5875 76.3235 82.0408 76.8735L82.0407 76.8733Z" fill="black"/>
<path d="M61.645 39.5514C58.9562 36.8594 55.1688 35.5715 51.3969 36.0663C47.6249 36.5611 44.2977 38.782 42.3944 42.0759C40.4911 45.3698 40.2279 49.3612 41.6827 52.8764C43.1368 56.3916 46.1438 59.0297 49.8182 60.0154C53.4926 61.001 57.416 60.2214 60.4346 57.9061C63.4531 55.5901 65.2229 52.003 65.2229 48.1983C65.2325 44.9538 63.944 41.8403 61.6448 39.5513L61.645 39.5514ZM60.3109 55.5492C58.0271 57.8305 54.8127 58.9206 51.6126 58.4991C48.4125 58.0776 45.5902 56.1915 43.9757 53.3963C42.3612 50.6012 42.1384 47.2141 43.3725 44.2309C44.6065 41.2483 47.1572 39.0093 50.2747 38.1712C53.3922 37.3338 56.7219 37.9934 59.285 39.9564C61.848 41.9187 63.3521 44.9617 63.3559 48.1894C63.3655 50.9513 62.2688 53.6015 60.311 55.5492H60.3109Z" fill="black"/>
</svg>
