<svg width="63" height="60" viewBox="0 0 63 60" fill="none" xmlns="http://www.w3.org/2000/svg">
<path d="M53.0822 34.8642C53.0822 26.7248 46.4799 20.125 38.3379 20.1224V34.8642L48.7631 45.2913C51.4323 42.6226 53.0821 38.935 53.0821 34.8642H53.0822Z" fill="black"/>
<path d="M8.82997 27.66H29.8496C30.6793 27.66 31.3531 26.9858 31.3531 26.1542C31.3531 25.327 30.6788 24.6508 29.8496 24.6508H8.82997C7.99828 24.6508 7.32411 25.327 7.32411 26.1542C7.32411 26.9884 7.99833 27.66 8.82997 27.66Z" fill="black"/>
<path d="M5.16804 38.4591H26.1877C27.0194 38.4591 27.6936 37.7849 27.6936 36.9557C27.6936 36.126 27.0194 35.4523 26.1877 35.4523H5.16804C4.33836 35.4523 3.66463 36.1265 3.66463 36.9557C3.66412 37.7854 4.33834 38.4591 5.16804 38.4591Z" fill="black"/>
<path d="M55.4445 17.1444L58.2756 14.3113C59.0917 13.4952 59.0917 12.1699 58.2756 11.3517L56.7969 9.87302C55.9808 9.05491 54.6555 9.05491 53.8374 9.87302L50.3546 13.3533C47.7423 11.8882 44.8342 10.8984 41.7484 10.4729L41.7489 6.27769H44.093C45.2492 6.27769 46.1845 5.34235 46.1845 4.18616V2.09411C46.1845 0.937881 45.2492 0 44.093 0H32.5861C31.4299 0 30.492 0.937855 30.492 2.09411V4.18822C30.492 5.34445 31.4298 6.27975 32.5861 6.27975H34.9302V10.4744C31.8419 10.9006 28.9368 11.8897 26.3219 13.3575L22.8416 9.8747C22.0255 9.05658 20.7002 9.05658 19.8821 9.8747L18.4034 11.3534C17.5873 12.1695 17.5873 13.4948 18.4034 14.3129L21.2366 17.1461C19.8459 18.4896 18.6354 20.011 17.5873 21.6432H24.5367C28.024 18.005 32.9175 15.7262 38.3433 15.7262C48.8992 15.7262 57.4824 24.3118 57.4824 34.8627C57.4824 45.4207 48.8968 54.0044 38.3459 54.0044H38.3393C33.9821 54.0044 29.8528 52.5483 26.4898 49.8816C25.728 51.2969 24.2492 52.273 22.5316 52.273H20.8793C20.8884 52.2821 20.8974 52.2931 20.9065 52.3022C25.5635 56.9593 31.7553 59.5219 38.3389 59.5219H38.3455C51.9395 59.5219 63 48.4633 63 34.8647C62.9975 27.9122 60.0919 21.6326 55.4438 17.145L55.4445 17.1444Z" fill="black"/>
<path d="M24.0315 47.7576C24.0315 46.9279 23.3573 46.2517 22.5281 46.2517L1.50586 46.2522C0.674165 46.2522 0 46.9284 0 47.7581C0 48.5898 0.674217 49.2639 1.50586 49.2639H22.5255C23.3572 49.2634 24.0314 48.5917 24.0314 47.7576L24.0315 47.7576Z" fill="black"/>
</svg>
