<svg id="Calque_1" data-name="Calque 1" xmlns="http://www.w3.org/2000/svg" viewBox="0 0 1366 446"><defs><style>.cls-1{fill:#fff;}</style></defs><path class="cls-1" d="M113.82,54.87c105.33-61.72,215-15.14,261.3,61.71-7.72-.87-13.76-3.91-18.31-9.79A194.58,194.58,0,0,0,338.6,86.3c-4.67-4.55-9.58-8.83-14.63-13-1.74-1.41-2.43-1-3.17.79a27.67,27.67,0,0,0-2.2,9.8c-.11,3.7,1.3,6.43,4.22,9,31.87,28.17,51.56,63.39,58.57,105.25,7.56,45.21-1.32,87.42-25.64,126.31A18.75,18.75,0,0,1,344,333.15a6.21,6.21,0,0,0-3.63,2.31,172.79,172.79,0,0,1-29.58,28.76c-5.85,4.46-9.53,10.24-9.62,17.8,0,2.12-1.26,2.69-2.76,3.43a180,180,0,0,1-57.83,17.71c-44,5.61-85.5-2.08-123.4-25.46-47.3-29.19-76.73-71.28-87.78-125.89-4.34-21.44-5.21-43.21-1-64.65,2.73-13.86,8.3-27.09,14.71-39.81A178.59,178.59,0,0,1,94,85.61a19.52,19.52,0,0,1,12.46-4.31,7,7,0,0,0,4.18-1.22,178.14,178.14,0,0,1,42.13-19.9c9.89-3.25,16.42-11.22,16.81-20.28-.05-5.35.7-4.6-3.81-3.85C158.54,37.6,147.68,39.06,113.82,54.87Zm211.07,92.41c.28.1.75.35.81.27.37-.47.07-.75-.39-.92a5,5,0,0,0-.39-1Q293.41,98,237.39,87.12c-7.18-1.38-14.49-1.57-22.4-2.26a14.32,14.32,0,0,1,10.23-3.55A159.32,159.32,0,0,1,248,83.53c1.66.29,2.54.3,2.21-1.92a13.21,13.21,0,0,1,1.53-8.36c1.48-2.67.81-3.41-1.86-4.06-29.29-7.15-58.45-6.8-87.42,1.62a157.3,157.3,0,0,0-38.52,17c-1.16.71-2.93,1-1.72,3.22,5.15,9.48,1.39,19.49-6.67,25.39-8.42,6.16-15.61,13.73-22.2,21.82-.55.67-1.72,1.2-.91,2.48,1.7,2.66,10.71,5.67,12.37,2.95,8.28-13.55,24.08-27.85,26.34-29.36,0,0,80.75,122.59,90,136.6.91-1,90.59-110.25,90.41-110.4,1.48-1.81,2.4-2.3,4.32-.56C318.7,142.58,321.86,144.86,324.89,147.28ZM94.51,163.76c-18.22,48.74-13.12,93.33,18.33,134,23.65,30.57,64.18,50.66,101.8,50.66C174.81,287.82,135,225.31,94.51,163.76Zm235.6,130.53c-6.95.71-11.25,4-14.75,9-31.25,44.62-86.74,65.44-139,51.1-47.91-13.15-78.68-45.4-96.41-90.88-2.06-5.28-4.92-7.56-10.07-8.13-4.9-.55-5.8.28-4.55,5q21.8,81.84,103.11,105.41c11.39,3.3,17,12.05,14.45,23.59-.47,2.09-.15,2.48,1.84,2.75a171.24,171.24,0,0,0,46.78.09C270.31,386.67,303,369.43,329.9,341c2.18-2.3,4.17-4.78,6.34-7.29-.88-.41-1.32-.66-1.79-.83-12.94-4.74-17.27-16.95-10.2-28.7C326.11,301.11,327.93,298,330.11,294.29Zm13.29-101C301.28,244.71,258,297.31,216.14,348.42,292.23,347.77,357.87,275.31,343.4,193.25Z"/><path class="cls-1" d="M55.76,104.79C48.48,93.74,41.59,83.16,34.54,72.7c-1.26-1.88-1.27-2.72.73-4Q57.43,54.36,79.41,39.76c1.8-1.19,2.59-1,3.73.75C87.91,48,92.82,55.39,97.67,62.82c.66,1,1.54,1.78-.18,2.95A190.25,190.25,0,0,0,55.76,104.79Z"/><path class="cls-1" d="M389,289.27c-8.53,19.93-19.43,37.19-34,52.1,1-1.34,2-2.68,3-4s2.12-2.79,3.13-4.23a193.21,193.21,0,0,0,18.48-32.48C381.49,296.32,384,292.35,389,289.27Z"/><path class="cls-1" d="M649.66,133,577.12,305H525.67L453.44,133h51.45l47.62,117,49.22-117Z"/><path class="cls-1" d="M808.81,233.06H678.74a40.5,40.5,0,0,0,16.62,25.25q13.1,9.27,32.6,9.26a66,66,0,0,0,23.8-4A57.63,57.63,0,0,0,771.1,251l26.52,28.77q-24.29,27.79-70.94,27.8-29.08,0-51.45-11.35T640.71,264.7q-12.15-20.14-12.14-45.7,0-25.25,12-45.54a84,84,0,0,1,32.92-31.64q20.92-11.34,46.82-11.34,25.23,0,45.7,10.86A79.38,79.38,0,0,1,798.1,172.5q11.67,20.3,11.67,47.14Q809.77,220.6,808.81,233.06ZM692.16,177.77q-11.5,9.58-14.06,26.21h84.69q-2.56-16.3-14.06-26t-28.12-9.75Q703.66,168.18,692.16,177.77Z"/><path class="cls-1" d="M819,67.84h49.86V305H819Z"/><path class="cls-1" d="M1061.91,133,989.37,305H937.91L865.69,133h51.45l47.62,117L1014,133Z"/><path class="cls-1" d="M1221.05,233.06H1091a40.52,40.52,0,0,0,16.61,25.25q13.11,9.27,32.6,9.26a66.1,66.1,0,0,0,23.81-4A57.5,57.5,0,0,0,1183.34,251l26.53,28.77q-24.3,27.79-70.95,27.8-29.09,0-51.45-11.35T1053,264.7q-12.15-20.14-12.15-45.7,0-25.25,12-45.54a84,84,0,0,1,32.91-31.64q20.93-11.34,46.82-11.34,25.24,0,45.7,10.86a79.4,79.4,0,0,1,32.12,31.16Q1222,192.8,1222,219.64,1222,220.6,1221.05,233.06Zm-116.64-55.29q-11.51,9.58-14.06,26.21H1175q-2.55-16.3-14.06-26t-28.12-9.75Q1115.92,168.18,1104.41,177.77Z"/><path class="cls-1" d="M1342.17,296.65a51.11,51.11,0,0,1-18.05,8.15,91.37,91.37,0,0,1-22.53,2.72q-30.69,0-47.46-15.66t-16.78-46V175.21h-26.52V136.87h26.52V95h49.85v41.87H1330v38.34H1287.2v70q0,10.88,5.6,16.78t15.82,5.91q11.82,0,20.13-6.39Z"/><path class="cls-1" d="M684.18,391.08v3.68H655.77V354.58h27.55v3.67H660v14.29H680.8v3.62H660v14.92Z"/><path class="cls-1" d="M739.88,367.61q3.24,3.27,3.25,9.64v17.51h-4.08V377.65c0-3.13-.76-5.53-2.27-7.17a8.23,8.23,0,0,0-6.4-2.47,9.63,9.63,0,0,0-7.4,2.9q-2.7,2.89-2.7,8v15.85h-4.07V377.65c0-3.13-.76-5.53-2.27-7.17a8.31,8.31,0,0,0-6.46-2.47,9.64,9.64,0,0,0-7.37,2.9q-2.73,2.89-2.73,8v15.85h-4.07V364.57h3.9v5.51a10.8,10.8,0,0,1,4.48-4.25,14,14,0,0,1,6.6-1.49,13,13,0,0,1,6.57,1.6,10,10,0,0,1,4.16,4.77,11.8,11.8,0,0,1,4.79-4.68,14.78,14.78,0,0,1,7.15-1.69Q736.65,364.34,739.88,367.61Z"/><path class="cls-1" d="M777.45,366.26a13.77,13.77,0,0,1,5.39,5.42,17.43,17.43,0,0,1,0,16,13.83,13.83,0,0,1-5.36,5.42,15.49,15.49,0,0,1-7.72,1.92,14.2,14.2,0,0,1-6.63-1.52,12.46,12.46,0,0,1-4.85-4.45v16.82H754.2V364.57h3.91v6a12.6,12.6,0,0,1,4.85-4.6,14.19,14.19,0,0,1,6.8-1.6A15.53,15.53,0,0,1,777.45,366.26ZM775.21,390a10.34,10.34,0,0,0,4-4.16,12.72,12.72,0,0,0,1.46-6.14,12.57,12.57,0,0,0-1.46-6.11,10.59,10.59,0,0,0-4-4.16,11.86,11.86,0,0,0-11.51,0,10.66,10.66,0,0,0-4,4.16,12.57,12.57,0,0,0-1.46,6.11,12.72,12.72,0,0,0,1.46,6.14,10.4,10.4,0,0,0,4,4.16,12,12,0,0,0,11.51,0Z"/><path class="cls-1" d="M797.59,393.06a14.43,14.43,0,0,1-5.51-5.48,16.61,16.61,0,0,1,0-15.84,14.28,14.28,0,0,1,5.51-5.45,16.84,16.84,0,0,1,15.73,0,14.07,14.07,0,0,1,5.48,5.45,16.83,16.83,0,0,1,0,15.84,14.22,14.22,0,0,1-5.48,5.48,16.61,16.61,0,0,1-15.73,0Zm13.63-3.1a10.07,10.07,0,0,0,4-4.16,13.81,13.81,0,0,0,0-12.28,10.07,10.07,0,0,0-4-4.16,12.11,12.11,0,0,0-11.53,0,10.4,10.4,0,0,0-4,4.16,13.64,13.64,0,0,0,0,12.28,10.4,10.4,0,0,0,4,4.16,12,12,0,0,0,11.53,0Z"/><path class="cls-1" d="M872.55,364.57l-11.42,30.19h-3.85L847.76,370l-9.53,24.74h-3.85L823,364.57h3.9l9.47,25.65,9.7-25.65h3.5l9.65,25.65,9.58-25.65Z"/><path class="cls-1" d="M904.12,380.92H878.86a10.8,10.8,0,0,0,3.62,7.61,12,12,0,0,0,8.27,2.9,13,13,0,0,0,5.16-1,11.31,11.31,0,0,0,4.08-2.95l2.29,2.64a13,13,0,0,1-5,3.67,17,17,0,0,1-6.63,1.26,16.77,16.77,0,0,1-8.24-2,14.23,14.23,0,0,1-5.59-5.48,15.6,15.6,0,0,1-2-7.92,16.23,16.23,0,0,1,1.92-7.92,13.91,13.91,0,0,1,5.28-5.45,14.77,14.77,0,0,1,7.55-2,14.61,14.61,0,0,1,7.52,2,13.82,13.82,0,0,1,5.22,5.42,16.39,16.39,0,0,1,1.9,8Zm-21.9-10.3a11,11,0,0,0-3.36,7.26h21.41a10.92,10.92,0,0,0-3.36-7.26,11.09,11.09,0,0,0-14.69,0Z"/><path class="cls-1" d="M920.68,365.89a14.42,14.42,0,0,1,7-1.55v4l-1-.06a9.62,9.62,0,0,0-7.46,2.93q-2.7,2.93-2.7,8.2v15.39H912.5V364.57h3.9v5.91A9.84,9.84,0,0,1,920.68,365.89Z"/><path class="cls-1" d="M975.92,364.57l-15.1,33.8a14.49,14.49,0,0,1-4.24,6,9.54,9.54,0,0,1-5.8,1.78,11.85,11.85,0,0,1-4.08-.69,8.86,8.86,0,0,1-3.27-2.07l1.9-3a7.51,7.51,0,0,0,5.51,2.3,5.6,5.6,0,0,0,3.53-1.15,10.54,10.54,0,0,0,2.72-3.9l1.32-2.93-13.49-30.13h4.25l11.37,25.65,11.36-25.65Z"/><path class="cls-1" d="M985.27,393.06a14.43,14.43,0,0,1-5.51-5.48,16.61,16.61,0,0,1,0-15.84,14.28,14.28,0,0,1,5.51-5.45,16.84,16.84,0,0,1,15.73,0,14.07,14.07,0,0,1,5.48,5.45,16.83,16.83,0,0,1,0,15.84,14.22,14.22,0,0,1-5.48,5.48,16.61,16.61,0,0,1-15.73,0ZM998.9,390a10.07,10.07,0,0,0,4-4.16,13.81,13.81,0,0,0,0-12.28,10.07,10.07,0,0,0-4-4.16,12.11,12.11,0,0,0-11.53,0,10.4,10.4,0,0,0-4,4.16,13.64,13.64,0,0,0,0,12.28,10.4,10.4,0,0,0,4,4.16,12,12,0,0,0,11.53,0Z"/><path class="cls-1" d="M1044,364.57v30.19h-3.9v-5.51a11.27,11.27,0,0,1-4.42,4.27,13.25,13.25,0,0,1-6.43,1.52q-5.91,0-9.33-3.3t-3.41-9.67v-17.5h4.07v17.1c0,3.18.79,5.59,2.35,7.23a8.83,8.83,0,0,0,6.72,2.47,9.89,9.89,0,0,0,7.52-2.9c1.84-1.93,2.75-4.62,2.75-8.06V364.57Z"/><path class="cls-1" d="M1063.59,365.89a14.45,14.45,0,0,1,7-1.55v4l-1-.06a9.62,9.62,0,0,0-7.46,2.93q-2.7,2.93-2.7,8.2v15.39h-4.07V364.57h3.9v5.91A9.84,9.84,0,0,1,1063.59,365.89Z"/><path class="cls-1" d="M1116.71,366.26a13.77,13.77,0,0,1,5.39,5.42,17.3,17.3,0,0,1,0,16,14,14,0,0,1-5.39,5.45,15.34,15.34,0,0,1-7.69,2,14.26,14.26,0,0,1-6.81-1.6,12.5,12.5,0,0,1-4.85-4.65v6h-3.9V352.17h4.08v18.14a12.39,12.39,0,0,1,4.85-4.45,14.2,14.2,0,0,1,6.63-1.52A15.53,15.53,0,0,1,1116.71,366.26Zm-2.24,23.7a10.25,10.25,0,0,0,4-4.16,13.56,13.56,0,0,0,0-12.28,10.25,10.25,0,0,0-4-4.16,12.07,12.07,0,0,0-11.51,0,10.4,10.4,0,0,0-4,4.16,13.64,13.64,0,0,0,0,12.28,10.4,10.4,0,0,0,4,4.16,12,12,0,0,0,11.51,0Z"/><path class="cls-1" d="M1159.58,364.57v30.19h-3.9v-5.51a11.2,11.2,0,0,1-4.42,4.27,13.25,13.25,0,0,1-6.43,1.52q-5.91,0-9.33-3.3t-3.41-9.67v-17.5h4.07v17.1q0,4.77,2.36,7.23a8.79,8.79,0,0,0,6.71,2.47,9.89,9.89,0,0,0,7.52-2.9q2.76-2.89,2.76-8.06V364.57Z"/><path class="cls-1" d="M1172.06,394a15.14,15.14,0,0,1-5.25-2.67l1.84-3.21a15.52,15.52,0,0,0,4.76,2.44,19,19,0,0,0,6,.94c2.76,0,4.79-.43,6.11-1.29a4.1,4.1,0,0,0,2-3.64,3.26,3.26,0,0,0-1.09-2.61,7.26,7.26,0,0,0-2.75-1.44,39.19,39.19,0,0,0-4.42-.94,50.18,50.18,0,0,1-5.91-1.41,8.64,8.64,0,0,1-3.82-2.44,6.8,6.8,0,0,1-1.58-4.76,7.44,7.44,0,0,1,3.16-6.2q3.15-2.42,8.78-2.41a22.61,22.61,0,0,1,5.85.77,16.29,16.29,0,0,1,4.83,2l-1.78,3.27a15.28,15.28,0,0,0-8.9-2.58,10.38,10.38,0,0,0-5.88,1.37,4.23,4.23,0,0,0-2,3.62,3.57,3.57,0,0,0,1.12,2.76,7,7,0,0,0,2.78,1.52,45.42,45.42,0,0,0,4.59,1,53.19,53.19,0,0,1,5.8,1.38,8.52,8.52,0,0,1,3.73,2.35,6.49,6.49,0,0,1,1.55,4.59,7.31,7.31,0,0,1-3.3,6.29q-3.3,2.32-9.16,2.32A23.11,23.11,0,0,1,1172.06,394Z"/><path class="cls-1" d="M1199,357.1a2.82,2.82,0,0,1-.86-2.06,2.76,2.76,0,0,1,.86-2,2.89,2.89,0,0,1,2.12-.86,3,3,0,0,1,2.13.83,2.69,2.69,0,0,1,.86,2,3,3,0,0,1-3,3A2.86,2.86,0,0,1,1199,357.1Zm.06,7.47h4.07v30.19h-4.07Z"/><path class="cls-1" d="M1238.93,367.64q3.36,3.3,3.36,9.61v17.51h-4.08V377.65c0-3.13-.78-5.53-2.35-7.17a8.83,8.83,0,0,0-6.72-2.47,10.34,10.34,0,0,0-7.72,2.9q-2.84,2.89-2.84,8v15.85h-4.07V364.57h3.9v5.56a11.35,11.35,0,0,1,4.62-4.27,14.72,14.72,0,0,1,6.86-1.52A12.34,12.34,0,0,1,1238.93,367.64Z"/><path class="cls-1" d="M1279.76,380.92h-25.25a10.8,10.8,0,0,0,3.62,7.61,12,12,0,0,0,8.26,2.9,13,13,0,0,0,5.17-1,11.27,11.27,0,0,0,4.07-2.95l2.3,2.64a13,13,0,0,1-5,3.67,17,17,0,0,1-6.63,1.26,16.77,16.77,0,0,1-8.24-2,14.26,14.26,0,0,1-5.6-5.48,15.59,15.59,0,0,1-2-7.92,16.23,16.23,0,0,1,1.92-7.92,13.91,13.91,0,0,1,5.28-5.45,14.75,14.75,0,0,1,7.55-2,14.55,14.55,0,0,1,7.51,2,13.84,13.84,0,0,1,5.23,5.42,16.39,16.39,0,0,1,1.89,8Zm-21.89-10.3a11,11,0,0,0-3.36,7.26h21.41a11,11,0,0,0-3.36-7.26,11.09,11.09,0,0,0-14.69,0Z"/><path class="cls-1" d="M1289.21,394a15.28,15.28,0,0,1-5.26-2.67l1.84-3.21a15.52,15.52,0,0,0,4.76,2.44,19,19,0,0,0,6,.94q4.14,0,6.12-1.29a4.1,4.1,0,0,0,2-3.64,3.29,3.29,0,0,0-1.09-2.61,7.38,7.38,0,0,0-2.76-1.44,39.19,39.19,0,0,0-4.42-.94,50.18,50.18,0,0,1-5.91-1.41,8.7,8.7,0,0,1-3.82-2.44A6.8,6.8,0,0,1,1285,373a7.47,7.47,0,0,1,3.16-6.2c2.11-1.61,5-2.41,8.78-2.41a22.68,22.68,0,0,1,5.86.77,16.22,16.22,0,0,1,4.82,2l-1.78,3.27a15.25,15.25,0,0,0-8.9-2.58,10.38,10.38,0,0,0-5.88,1.37,4.23,4.23,0,0,0-2,3.62,3.57,3.57,0,0,0,1.12,2.76,7.06,7.06,0,0,0,2.78,1.52,45.42,45.42,0,0,0,4.59,1,52.63,52.63,0,0,1,5.8,1.38,8.52,8.52,0,0,1,3.73,2.35,6.44,6.44,0,0,1,1.55,4.59,7.31,7.31,0,0,1-3.3,6.29q-3.3,2.32-9.15,2.32A23.06,23.06,0,0,1,1289.21,394Z"/><path class="cls-1" d="M1317.27,394a15.14,15.14,0,0,1-5.25-2.67l1.84-3.21a15.52,15.52,0,0,0,4.76,2.44,18.93,18.93,0,0,0,6,.94c2.76,0,4.79-.43,6.11-1.29a4.1,4.1,0,0,0,2-3.64,3.26,3.26,0,0,0-1.09-2.61,7.26,7.26,0,0,0-2.75-1.44,39.69,39.69,0,0,0-4.42-.94,50.18,50.18,0,0,1-5.91-1.41,8.64,8.64,0,0,1-3.82-2.44,6.8,6.8,0,0,1-1.58-4.76,7.44,7.44,0,0,1,3.16-6.2q3.15-2.42,8.78-2.41a22.61,22.61,0,0,1,5.85.77,16.22,16.22,0,0,1,4.82,2l-1.77,3.27a15.28,15.28,0,0,0-8.9-2.58,10.38,10.38,0,0,0-5.88,1.37,4.23,4.23,0,0,0-2,3.62,3.59,3.59,0,0,0,1.11,2.76,7.1,7.1,0,0,0,2.79,1.52,45.42,45.42,0,0,0,4.59,1,53.19,53.19,0,0,1,5.8,1.38,8.52,8.52,0,0,1,3.73,2.35,6.49,6.49,0,0,1,1.55,4.59,7.31,7.31,0,0,1-3.3,6.29q-3.3,2.32-9.16,2.32A23.11,23.11,0,0,1,1317.27,394Z"/></svg>