<svg width="63" height="63" viewBox="0 0 63 63" fill="none" xmlns="http://www.w3.org/2000/svg">
<path d="M60.5548 58.6396H33.4289C32.6832 58.6396 31.9944 59.0374 31.6218 59.683C31.2492 60.3285 31.2492 61.124 31.6218 61.7696C31.9944 62.4151 32.6833 62.8129 33.4289 62.8129H60.5548C61.3005 62.8129 61.9894 62.4151 62.362 61.7696C62.7346 61.124 62.7346 60.3285 62.362 59.683C61.9894 59.0374 61.3005 58.6396 60.5548 58.6396Z" fill="black"/>
<path d="M25.0825 58.6396H20.9093C20.1636 58.6396 19.4748 59.0374 19.1021 59.683C18.7295 60.3285 18.7295 61.124 19.1021 61.7696C19.4748 62.4151 20.1636 62.8129 20.9093 62.8129H25.0825C25.8282 62.8129 26.517 62.4151 26.8896 61.7696C27.2622 61.124 27.2622 60.3285 26.8896 59.683C26.517 59.0374 25.8281 58.6396 25.0825 58.6396Z" fill="black"/>
<path d="M50.9779 26.4641C51.3729 26.8562 51.595 27.3895 51.595 27.9457C51.595 28.5023 51.3729 29.0356 50.9779 29.4273L41.6301 38.7547H41.6297C41.237 39.1445 41.0153 39.675 41.013 40.2288C41.0111 40.7821 41.2291 41.314 41.6194 41.707C42.0097 42.0997 42.5397 42.3218 43.0935 42.3237C43.6473 42.3256 44.1792 42.1076 44.5718 41.7173L53.9195 32.3695H53.92C55.0919 31.1958 55.7505 29.6047 55.7505 27.9457C55.7505 26.2871 55.0919 24.6961 53.92 23.5223L52.2087 21.8111L52.7094 21.3104C53.239 20.7808 53.4453 20.0095 53.2516 19.2866C53.0583 18.5633 52.4933 17.9987 51.7705 17.805C51.0471 17.6112 50.2758 17.818 49.7467 18.3471L47.7854 20.4337L13.565 54.4669C12.5413 52.1604 10.6968 50.3161 8.39046 49.2924L44.5103 13.1106C45.0356 12.5815 45.2392 11.812 45.0435 11.0924C44.8479 10.3723 44.283 9.81158 43.5619 9.62105C42.8409 9.43055 42.0729 9.63921 41.5471 10.1688L2.69446 49C2.40615 49.292 2.21006 49.6618 2.13088 50.0642L0.0442711 60.3096C-0.0996453 60.9971 0.112272 61.7106 0.607846 62.2085C1.01166 62.6096 1.56172 62.828 2.13083 62.8136H2.54815L12.7935 60.727C13.1959 60.6478 13.5658 60.4517 13.8578 60.1634L49.3301 24.691L50.9779 26.4641ZM4.78037 58.0756L5.84464 52.8171L5.84417 52.8176C7.85721 53.404 9.43099 54.9777 10.0174 56.9908L4.78037 58.0756Z" fill="black"/>
<path d="M60.9721 9.95924C62.1342 8.90895 62.8147 7.42789 62.8543 5.86198C62.8939 4.29559 62.2893 2.78238 61.1813 1.67481C60.0737 0.566763 58.5605 -0.0377572 56.9941 0.00182878C55.4282 0.0414183 53.9471 0.7219 52.8969 1.88395L48.7236 6.05717L56.799 14.1116L60.9721 9.95924Z" fill="black"/>
</svg>
