<svg width="101" height="56" viewBox="0 0 101 56" fill="none" xmlns="http://www.w3.org/2000/svg">
<path fill-rule="evenodd" clip-rule="evenodd" d="M65.3777 55.2399C65.0088 55.2399 64.6398 55.1433 64.3089 54.9422L50.1248 46.3827L36.624 54.9217C35.9146 55.3691 35.0056 55.3461 34.3208 54.8592C33.636 54.3707 33.3137 53.5211 33.5061 52.7073L37.2646 36.5745L24.9734 26.3696C24.3265 25.8352 24.07 24.9603 24.3202 24.1621C24.5712 23.3625 25.2798 22.7924 26.1159 22.7212L42.6199 21.3118L48.5248 6.47044C48.8352 5.69056 49.585 5.17673 50.4234 5.16722C51.2595 5.14664 52.0236 5.6589 52.349 6.43165L58.7906 21.6918L74.7316 22.7211C75.5669 22.7741 76.2905 23.3299 76.5558 24.1233C76.825 24.9166 76.5827 25.7978 75.9509 26.3425L63.4262 37.1879L67.3739 52.6658C67.5806 53.4773 67.2765 54.3355 66.6035 54.8335C66.2457 55.1011 65.8118 55.2397 65.3779 55.2397L65.3777 55.2399ZM50.1018 41.8846C50.4707 41.8846 50.8397 41.9836 51.1706 42.1839L62.13 48.7974L59.1125 36.9663C58.9201 36.2078 59.1711 35.405 59.7618 34.8928L69.4401 26.5153L57.2551 25.7291C56.4729 25.6777 55.788 25.1915 55.484 24.4718L50.5062 12.6803L45.9917 24.0221C45.7019 24.7481 45.0258 25.2517 44.2467 25.3182L31.4948 26.4092L40.8898 34.2056C41.4923 34.7036 41.7607 35.5017 41.5834 36.2633L38.6784 48.7286L48.9973 42.2053C49.3338 41.9907 49.7178 41.8846 50.1018 41.8846L50.1018 41.8846Z" fill="black"/>
<path d="M9.87374 43.0077C9.45491 43.0077 9.03528 42.881 8.67502 42.6277C7.99016 42.1384 7.66791 41.2896 7.86032 40.4733L10.9957 27.0159L0.748009 18.5093C0.101151 17.9764 -0.156161 17.1023 0.0948069 16.3018C0.345775 15.5012 1.05441 14.9313 1.8905 14.86L15.6575 13.6858L20.5797 1.31073C20.8893 0.533244 21.6391 0.0186033 22.4776 0.0098877H22.4989C23.3279 0.0098877 24.0785 0.505518 24.4031 1.27352L29.7767 14.0041L37.4734 14.5006C38.6135 14.5742 39.4757 15.5567 39.4045 16.6985C39.3308 17.8378 38.3443 18.7032 37.2081 18.6288L28.2351 18.05C27.4529 17.9993 26.768 17.5124 26.464 16.7927L22.5552 7.52928L19.0231 16.4056C18.7341 17.1324 18.058 17.6328 17.2789 17.7017L7.26411 18.5576L14.6123 24.6564C15.2149 25.1568 15.4833 25.9525 15.3067 26.7165L13.0273 36.5058L21.0991 31.4005C21.7602 30.9808 22.6019 30.9721 23.2725 31.3775L31.4449 36.3117C32.4219 36.9024 32.7347 38.1708 32.1472 39.1485C31.5565 40.1248 30.2874 40.4383 29.3104 39.85L22.2362 35.5691L10.9807 42.6877C10.6418 42.9014 10.2578 43.0075 9.87386 43.0075L9.87374 43.0077Z" fill="black"/>
<path d="M89.9192 42.6875C90.2557 42.8989 90.6397 43.005 91.0237 43.005C91.2216 43.005 91.4203 42.978 91.6119 42.9202C91.8257 42.8553 92.0307 42.7563 92.2192 42.6178C92.9009 42.1332 93.2231 41.2821 93.0339 40.4634L89.8985 27.0068L100.147 18.4994C100.793 17.9665 101.05 17.0924 100.799 16.2919C100.548 15.4914 99.8396 14.9222 99.0035 14.8501L85.2366 13.6759L80.3143 1.30085C80.0047 0.524147 79.2549 0.00950605 78.4157 0H78.3959C77.5661 0 76.8132 0.498003 76.491 1.26443L71.1173 13.9942L63.4206 14.4906C62.2805 14.5643 61.4159 15.5468 61.4896 16.6886C61.5632 17.8279 62.5434 18.6957 63.6859 18.6197L72.6589 18.0401C73.4411 17.9894 74.126 17.5033 74.43 16.7836L78.3397 7.52016L81.8709 16.3957C82.1599 17.1249 82.836 17.6229 83.6159 17.6925L93.6307 18.5476L86.2817 24.6465C85.6791 25.1469 85.4107 25.9434 85.5873 26.7066L87.8667 36.4958L79.7949 31.3913C79.1338 30.9717 78.2921 30.9622 77.6215 31.3684L69.4499 36.3018C68.4721 36.8925 68.1562 38.1608 68.7468 39.1394C69.3375 40.1149 70.6066 40.4308 71.5845 39.8401L78.6643 35.5687L89.9192 42.6875Z" fill="black"/>
</svg>
