<svg width="95" height="83" viewBox="0 0 95 83" fill="none" xmlns="http://www.w3.org/2000/svg">
<path d="M77.6867 64.3105L73.3875 48.2655C73.1325 47.314 72.1538 46.7494 71.2022 47.0044L41.9717 54.8367C35.887 56.4671 29.61 52.8425 27.9796 46.7578C26.3489 40.6718 29.9726 34.3943 36.0573 32.7639L65.2862 24.9321C66.2377 24.6771 66.8031 23.6989 66.5479 22.7466L62.2498 6.70327C61.9943 5.74976 61.016 5.1865 60.0644 5.44149L30.8339 13.2738C27.7673 14.0955 24.8601 15.3621 22.1938 17.0402C21.3595 17.5646 21.1111 18.6677 21.6344 19.5029C22.1581 20.3373 23.2615 20.587 24.0958 20.0627C26.4585 18.5771 29.0376 17.4519 31.7573 16.7231L48.2638 12.2995L51.6382 24.8929L35.1316 29.3159C27.1457 31.4557 22.3879 39.6953 24.5283 47.6832C26.6681 55.6691 34.9077 60.4268 42.8943 58.2868L59.4009 53.8639L62.7753 66.4573L46.2687 70.8802C31.3373 74.8811 15.9358 65.9891 11.9349 51.0576C9.4069 41.623 11.9059 31.7236 18.6195 24.5766C19.2949 23.8586 19.2594 22.7281 18.5421 22.0525C17.8221 21.3776 16.6918 21.4116 16.0177 22.1314C12.3972 25.9861 9.77353 30.7248 8.43445 35.8365C7.05078 41.1135 7.06876 46.6958 8.48533 51.9825C12.9953 68.8139 30.3606 78.841 47.1935 74.3307L76.4223 66.4988C77.3737 66.2432 77.9393 65.2635 77.6842 64.3114L77.6867 64.3105ZM51.7133 11.3739L59.2643 9.35063L62.6387 21.944L55.0877 23.9673L51.7133 11.3739ZM62.8506 52.9388L70.4015 50.9155L73.7759 63.5089L66.225 65.5322L62.8506 52.9388Z" fill="black"/>
<path d="M81.4355 13.2967C81.9287 12.4434 81.6359 11.3505 80.7821 10.8582L72.7514 6.22167C72.1256 5.85926 71.3432 5.91052 70.7713 6.3507C70.199 6.78958 69.9464 7.53253 70.1333 8.23001L71.4966 13.3178L68.9019 11.8197C68.0479 11.3267 66.9557 11.6193 66.4634 12.4731C66.2173 12.9003 66.1667 13.3884 66.2847 13.8285C66.4028 14.2693 66.6904 14.666 67.117 14.9123L73.4442 18.5664C74.069 18.9277 74.85 18.8762 75.4233 18.4363C75.9953 17.9961 76.2483 17.2551 76.0611 16.5563L74.698 11.4693L78.9962 13.9497C79.8487 14.4452 80.9423 14.1522 81.4356 13.2968L81.4355 13.2967Z" fill="black"/>
<path d="M92.5728 54.8617C93.0658 54.0077 92.7732 52.9154 91.9194 52.4232L83.8887 47.7866C83.2629 47.4242 82.4804 47.4755 81.9085 47.9156C81.3362 48.3545 81.0837 49.0975 81.2706 49.7949L82.6339 54.8827L80.0392 53.3846C79.1852 52.8916 78.0929 53.1843 77.6007 54.038C77.3546 54.4652 77.304 54.9533 77.4219 55.3934C77.54 55.8342 77.8273 56.2297 78.2542 56.4773L84.5811 60.1301C85.2063 60.4927 85.9871 60.4404 86.5603 59.9999C87.1325 59.561 87.3852 58.8187 87.1982 58.1206L85.8351 53.0335L90.1333 55.514C90.9858 56.0095 92.0794 55.7165 92.5728 54.8617L92.5728 54.8617Z" fill="black"/>
</svg>
