<svg width="82" height="82" viewBox="0 0 82 82" fill="none" xmlns="http://www.w3.org/2000/svg">
<path d="M71.4381 10.7977C72.4745 11.6618 73.7706 12.0932 75.1522 12.0932C78.5212 12.0932 81.1989 9.41553 81.1989 6.04661C81.1989 2.6777 78.5212 0 75.1522 0C71.7833 0 69.1056 2.6777 69.1056 6.04661C69.1056 6.73775 69.1918 7.3421 69.4509 7.94703L61.4176 14.0805C60.3812 13.3893 59.1719 12.9573 57.8758 12.9573C54.5069 12.9573 51.8292 15.635 51.8292 19.0039C51.8292 19.7812 52.0021 20.4724 52.1745 21.0773L44.2273 27.1239C43.2771 26.3466 41.9815 25.9146 40.5992 25.9146C39.4761 25.9146 38.4397 26.2598 37.4895 26.7786L28.765 17.3631C29.197 16.5858 29.37 15.6356 29.37 14.6854C29.37 11.3165 26.6923 8.6388 23.3233 8.6388C20.5588 8.6388 18.3132 10.4531 17.5357 12.9579H11.8343C11.057 10.4531 8.81064 8.6388 6.04671 8.6388C2.67779 8.6388 9.15527e-05 11.3165 9.15527e-05 14.6854C9.15527e-05 18.0543 2.67779 20.732 6.04671 20.732C8.81125 20.732 11.0569 18.9177 11.8343 16.4129H17.5357C18.313 18.9177 20.5594 20.732 23.3233 20.732C24.4465 20.732 25.4829 20.3868 26.347 19.868L35.1582 29.3703C34.8129 30.1476 34.5532 31.0978 34.5532 31.962C34.5532 35.3309 37.2309 38.0086 40.5998 38.0086C43.9688 38.0086 46.6465 35.3309 46.6465 31.962C46.6465 31.2708 46.5603 30.5797 46.3012 29.9753L54.2484 23.8419C55.2848 24.6192 56.4942 25.0512 57.8764 25.0512C61.2453 25.0512 63.923 22.3735 63.923 19.0046C63.923 18.2273 63.7501 17.5361 63.491 16.845L71.4381 10.7977ZM6.04663 17.2764C4.57821 17.2764 3.455 16.1533 3.455 14.6848C3.455 13.2163 4.57816 12.0932 6.04663 12.0932C7.5151 12.0932 8.63826 13.2163 8.63826 14.6848C8.63826 16.1533 7.5151 17.2764 6.04663 17.2764ZM75.1526 3.45493C76.621 3.45493 77.7442 4.57808 77.7442 6.04655C77.7442 7.51502 76.621 8.63818 75.1526 8.63818C73.6841 8.63818 72.5609 7.51502 72.5609 6.04655C72.5609 4.57808 73.6841 3.45493 75.1526 3.45493ZM23.3231 17.2764C21.8547 17.2764 20.7315 16.1533 20.7315 14.6848C20.7315 13.2163 21.8546 12.0932 23.3231 12.0932C24.7916 12.0932 25.9147 13.2163 25.9147 14.6848C25.9147 16.1533 24.7916 17.2764 23.3231 17.2764ZM40.5996 34.5529C39.1312 34.5529 38.008 33.4297 38.008 31.9613C38.008 30.4928 39.1311 29.3697 40.5996 29.3697C42.0681 29.3697 43.1912 30.4928 43.1912 31.9613C43.1912 33.4297 42.0681 34.5529 40.5996 34.5529ZM57.8761 21.5955C56.4076 21.5955 55.2845 20.4724 55.2845 19.0039C55.2845 17.5354 56.4076 16.4123 57.8761 16.4123C59.3445 16.4123 60.4677 17.5354 60.4677 19.0039C60.4677 20.4724 59.3445 21.5955 57.8761 21.5955Z" fill="black"/>
<path d="M0 81.1993H12.0932V25.9146H0V81.1993Z" fill="black"/>
<path d="M17.2763 81.1993H29.3695V25.9146H17.2763V81.1993Z" fill="black"/>
<path d="M34.5528 81.1993H46.646V43.191H34.5528V81.1993Z" fill="black"/>
<path d="M51.8293 81.1993H63.9225V30.2336H51.8293V81.1993Z" fill="black"/>
<path d="M69.1058 81.1992H81.199V17.2762H69.1058V81.1992Z" fill="black"/>
</svg>
