<svg width="58" height="85" viewBox="0 0 58 85" fill="none" xmlns="http://www.w3.org/2000/svg">
<path d="M54.0656 22.3339H53.8306L52.7024 15.5504C52.5801 14.8167 52.2003 14.1516 51.6324 13.6718C51.0645 13.1927 50.3441 12.9312 49.6005 12.934H8.39839C7.65494 12.9312 6.93455 13.1927 6.36657 13.6718C5.79866 14.1516 5.41888 14.8167 5.29648 15.5504L4.16835 22.3339H3.93335C3.10317 22.3367 2.30725 22.6675 1.72052 23.2543C1.13378 23.8411 0.802903 24.637 0.80011 25.4671V31.7338C0.802907 32.564 1.13373 33.3599 1.72052 33.9466C2.30731 34.5333 3.10324 34.8642 3.93335 34.867H4.38797L4.81111 39.5985H4.81041C4.03127 39.6572 3.3032 40.0097 2.77376 40.5853C2.17927 41.2288 1.88341 42.094 1.95965 42.9668L4.40328 71.1666C4.47042 71.9507 4.82991 72.6808 5.41041 73.2117C5.99092 73.7433 6.74977 74.0363 7.53659 74.0335H7.80306L8.38287 80.7071C8.48008 81.8814 9.01653 82.9745 9.88448 83.7704C10.7531 84.5663 11.8889 85.0048 13.0667 84.9999H44.9333C46.1111 85.0048 47.247 84.5663 48.1155 83.7704C48.9835 82.9745 49.5199 81.8813 49.6171 80.7071L50.1969 74.0335H50.4634C51.2503 74.0363 52.0091 73.7433 52.5896 73.2117C53.1701 72.6809 53.5296 71.9507 53.5967 71.1666L56.0404 42.9668C56.1166 42.094 55.8207 41.2288 55.2263 40.5853C54.6968 40.0097 53.9687 39.6572 53.1896 39.5985L53.612 34.867H54.0667C54.8968 34.8642 55.6928 34.5334 56.2795 33.9466C56.8662 33.3598 57.1971 32.5639 57.1999 31.7338V25.4671C57.1971 24.637 56.8663 23.841 56.2795 23.2543C55.6927 22.6676 54.8968 22.3367 54.0667 22.3339H54.0656ZM8.39802 16.0673H49.6002L50.65 22.3339H7.34761L8.39802 16.0673ZM46.483 80.4255C46.4179 81.2354 45.7451 81.8614 44.9324 81.867H13.0657C12.253 81.8614 11.5802 81.2354 11.5151 80.4255L10.9507 74.0337H47.0465L46.483 80.4255ZM50.4626 70.9004H7.53627L5.07653 42.7006H52.9231L50.4626 70.9004ZM7.53627 34.8673H50.4626L50.0395 39.5673H7.96001L7.53627 34.8673ZM54.0668 31.734H3.93385V25.4674H54.0668V31.734Z" fill="black"/>
<path d="M27.3881 11.3226H29.2613C29.2517 10.8402 29.4298 10.3723 29.7588 10.0155C30.3216 9.34317 30.6235 8.49447 30.6101 7.62226C30.6226 6.75088 30.3212 5.90343 29.7597 5.23113C29.4319 4.87267 29.2537 4.40476 29.2613 3.92197C29.2533 3.43837 29.4314 2.97006 29.7597 2.61122C30.3204 1.9393 30.6218 1.09273 30.6101 0.22168H28.737C28.7449 0.705276 28.5668 1.1736 28.2386 1.53243C27.6775 2.20435 27.376 3.05092 27.3881 3.92197C27.376 4.79336 27.6775 5.64081 28.2386 6.3131C28.5664 6.67156 28.7445 7.13947 28.737 7.62226C28.7466 8.10462 28.5685 8.57253 28.2394 8.92931C27.6766 9.60164 27.3747 10.4503 27.3881 11.3226Z" fill="black"/>
<path d="M34.729 11.3226H36.6022C36.5925 10.8402 36.7707 10.3723 37.0997 10.0155C37.6625 9.34317 37.9644 8.49447 37.951 7.62226C37.9635 6.75088 37.6621 5.90343 37.1005 5.23113C36.7727 4.87267 36.5946 4.40476 36.6022 3.92197C36.5942 3.43837 36.7723 2.97006 37.1005 2.61122C37.6612 1.9393 37.9627 1.09273 37.951 0.22168H36.0778C36.0858 0.705276 35.9077 1.1736 35.5794 1.53243C35.0183 2.20435 34.7169 3.05092 34.729 3.92197C34.7169 4.79336 35.0183 5.64081 35.5794 6.3131C35.9072 6.67156 36.0854 7.13947 36.0778 7.62226C36.0874 8.10462 35.9093 8.57253 35.5803 8.92931C35.0175 9.60164 34.7156 10.4503 34.729 11.3226Z" fill="black"/>
<path d="M20.0472 11.3226H21.9204C21.9107 10.8402 22.0889 10.3723 22.4179 10.0155C22.9807 9.34317 23.2826 8.49447 23.2692 7.62226C23.2817 6.75088 22.9803 5.90343 22.4187 5.23113C22.0909 4.87267 21.9128 4.40476 21.9204 3.92197C21.9124 3.43837 22.0905 2.97006 22.4187 2.61122C22.9794 1.9393 23.2809 1.09273 23.2692 0.22168H21.396C21.404 0.705276 21.2259 1.1736 20.8977 1.53243C20.3365 2.20435 20.0351 3.05092 20.0472 3.92197C20.0351 4.79336 20.3365 5.64081 20.8977 6.3131C21.2255 6.67156 21.4036 7.13947 21.396 7.62226C21.4057 8.10462 21.2275 8.57253 20.8985 8.92931C20.3357 9.60164 20.0338 10.4503 20.0472 11.3226Z" fill="black"/>
<path d="M23.49 47.4039C29.5755 43.8603 35.9102 46.5343 38.5861 50.9466C38.1384 50.8971 37.7901 50.7221 37.5285 50.385C37.2057 49.9688 36.8539 49.5757 36.4758 49.2084C36.2062 48.9469 35.9231 48.7012 35.6301 48.4668C35.5306 48.3858 35.4899 48.409 35.4466 48.5123C35.3704 48.6907 35.3274 48.8813 35.3197 49.0749C35.3133 49.287 35.3948 49.4437 35.564 49.592C37.4046 51.2096 38.5428 53.2316 38.9467 55.6352C39.3835 58.2306 38.8706 60.6535 37.4653 62.8871C37.3909 63.0104 37.2924 63.1177 37.1756 63.2026C37.0588 63.2875 36.9261 63.3483 36.7853 63.3814C36.7014 63.3992 36.6269 63.4464 36.5753 63.5144C36.0739 64.1305 35.5001 64.6847 34.866 65.1651C34.5282 65.4217 34.3158 65.7529 34.3104 66.187C34.3104 66.3091 34.2377 66.3412 34.1512 66.3847C33.103 66.9081 31.9735 67.2519 30.8102 67.4016C28.2686 67.723 25.8709 67.282 23.681 65.9393C20.9499 64.2629 19.2496 61.8459 18.6108 58.7111C18.3621 57.4802 18.3124 56.2299 18.5546 54.9989C18.7123 54.2035 19.0342 53.4436 19.4048 52.7135C20.1015 51.3261 21.1063 50.1142 22.3433 49.1693C22.5469 49.006 22.8016 48.9186 23.0632 48.9221C23.1492 48.9246 23.2338 48.9 23.3049 48.8519C24.0623 48.3666 24.8807 47.9825 25.739 47.7095C26.3101 47.5231 26.6877 47.0668 26.7096 46.5447C26.7066 46.2377 26.7504 46.2807 26.4892 46.3242C26.0738 46.4122 25.446 46.4963 23.49 47.4039ZM35.6844 52.7095C35.7003 52.7149 35.7271 52.7293 35.7306 52.7253C35.7525 52.6981 35.7351 52.6823 35.7082 52.6724C35.703 52.6517 35.6955 52.6317 35.6859 52.6126C34.4727 50.791 32.7871 49.6721 30.6291 49.2558C30.2142 49.1762 29.7924 49.1654 29.3357 49.1258C29.4981 48.9833 29.7104 48.91 29.9267 48.9216C30.3675 48.933 30.8068 48.9756 31.2415 49.0492C31.337 49.0665 31.3882 49.0665 31.3688 48.9394C31.3447 48.774 31.3758 48.6052 31.4574 48.4589C31.543 48.3062 31.5042 48.2612 31.3499 48.2261C29.6586 47.8157 27.9731 47.8355 26.2992 48.319C25.5167 48.5442 24.7683 48.8729 24.074 49.2964C24.0074 49.3369 23.9049 49.3527 23.9745 49.4808C24.273 50.0246 24.0541 50.6 23.589 50.9387C23.1025 51.2926 22.6871 51.7267 22.306 52.1914C22.2747 52.23 22.2065 52.2606 22.2538 52.3343C22.3533 52.4865 22.8726 52.6596 22.9686 52.5033C23.4467 51.7252 24.3615 50.9041 24.4899 50.818C24.4899 50.818 29.1556 57.8559 29.6884 58.6602C29.7382 58.6019 34.9217 52.3323 34.9118 52.3219C34.9974 52.2176 35.0501 52.1899 35.1605 52.2898C35.3262 52.4386 35.5078 52.5706 35.6844 52.7095ZM22.3747 53.6557C21.3215 56.4538 21.6165 59.0137 23.4338 61.3486C24.7998 63.1046 27.1414 64.2575 29.3148 64.2575C27.014 60.7786 24.7128 57.189 22.3747 53.6557ZM35.9858 61.1499C35.5844 61.1904 35.3356 61.3802 35.1337 61.6665C33.3284 64.2283 30.1222 65.4237 27.1006 64.6C24.3322 63.8456 22.5548 61.9937 21.529 59.383C21.4101 59.0794 21.2444 58.9484 20.9469 58.9158C20.6639 58.8842 20.6121 58.9316 20.6843 59.2006C21.523 62.3316 23.5086 64.3489 26.6409 65.2526C27.2991 65.442 27.6239 65.9447 27.4757 66.6067C27.4488 66.7268 27.4672 66.7496 27.5821 66.7644C28.4786 66.889 29.3879 66.8909 30.2849 66.7698C32.5269 66.4534 34.4138 65.4637 35.9699 63.8328C36.0958 63.7003 36.2107 63.5579 36.336 63.4141C36.2863 63.3903 36.2599 63.3765 36.2331 63.3646C35.4869 63.0922 35.2351 62.3917 35.6436 61.7169C35.7565 61.5414 35.8595 61.3624 35.9858 61.1499ZM36.7514 55.3489C34.3183 58.3028 31.8166 61.3234 29.3994 64.2575C33.7975 64.2199 37.5897 60.0598 36.7514 55.3489Z" fill="black"/>
<path d="M19.8078 49.9056C19.3426 49.2104 18.9026 48.5439 18.4527 47.886C18.3713 47.7679 18.3713 47.7148 18.4989 47.6335C19.4423 47.0321 20.382 46.4254 21.318 45.8134C21.433 45.7386 21.483 45.7484 21.5561 45.8606C21.8608 46.332 22.1748 46.7969 22.4845 47.2645C22.5263 47.3279 22.5829 47.3767 22.4729 47.4504C21.4642 48.1319 20.5657 48.9596 19.8078 49.9056Z" fill="black"/>
</svg>
