<svg width="100" height="62" viewBox="0 0 100 62" fill="none" xmlns="http://www.w3.org/2000/svg">
<path d="M85.3986 39.4958C84.4374 39.4958 83.6575 40.2756 83.6575 41.2369V55.6908C83.651 57.1566 82.4646 58.3438 80.9989 58.3494H45.3114V49.6892C45.3114 48.7271 44.5315 47.9473 43.5703 47.9473C42.6082 47.9473 41.8283 48.7271 41.8283 49.6892V58.3494H6.14086C4.67588 58.3438 3.48866 57.1565 3.48223 55.6908V32.6579H41.7943V36.1411C41.7943 37.1023 42.5742 37.8822 43.5363 37.8822C44.4975 37.8822 45.2774 37.1023 45.2774 36.1411V31.3923C45.3738 31.0861 45.3738 30.7582 45.2774 30.452V25.7153C45.2774 24.7532 44.4975 23.9741 43.5363 23.9741C42.5742 23.9741 41.7943 24.7532 41.7943 25.7153V29.1984H3.48223V6.15308C3.48871 4.68729 4.67592 3.50087 6.14086 3.49445H41.8283V12.1555V12.1547C41.8283 13.1168 42.6082 13.8966 43.5703 13.8966C44.5315 13.8966 45.3114 13.1168 45.3114 12.1547V3.48307H57.4436C58.4056 3.48307 59.1855 2.7032 59.1855 1.74113C59.1855 0.779056 58.4056 0 57.4436 0H6.14101C4.51324 0.00242954 2.95269 0.6511 1.80187 1.80187C0.651098 2.95345 0.0024256 4.51316 0 6.14101V55.6918C0.00242954 57.3203 0.651098 58.8801 1.80187 60.0317C2.95264 61.1825 4.51316 61.8304 6.14101 61.8336H81.001C82.6287 61.8303 84.1893 61.1825 85.3401 60.0317C86.4917 58.8801 87.1395 57.3204 87.1428 55.6918V41.2378C87.1428 40.2766 86.3629 39.4967 85.4008 39.4967L85.3986 39.4958Z" fill="black"/>
<path d="M83.6572 6.151C83.6572 7.11226 84.4371 7.89212 85.3983 7.89212C86.3604 7.89212 87.1403 7.11226 87.1403 6.151C87.137 4.52323 86.4892 2.96267 85.3376 1.81103C84.1868 0.660255 82.6263 0.0123894 80.9985 0.00915527H72.4539C71.4918 0.00915527 70.712 0.78902 70.712 1.75028C70.712 2.71236 71.4918 3.49222 72.4539 3.49222H81.0105H81.0097C82.4706 3.50518 83.6505 4.68914 83.6571 6.15085L83.6572 6.151Z" fill="black"/>
<path d="M57.442 18.1691C56.4807 18.1691 55.7009 18.9481 55.7009 19.9102C55.7009 20.8723 56.4807 21.6513 57.442 21.6513H71.8262C72.7883 21.6513 73.5682 20.8723 73.5682 19.9102C73.5682 18.9481 72.7883 18.1691 71.8262 18.1691H57.442Z" fill="black"/>
<path d="M88.4628 11.9455L59.4385 40.9698C59.1453 41.263 58.9202 41.6152 58.7769 42.0032L55.5261 50.9194C55.2087 51.79 55.3342 52.7602 55.863 53.5198C56.3926 54.2802 57.2584 54.7354 58.1848 54.7394C58.5208 54.7394 58.8553 54.6803 59.1711 54.5653L68.0994 51.3494C68.4914 51.2077 68.8485 50.9817 69.1441 50.6878L98.1684 21.6634C99.7962 19.9045 100.391 17.4263 99.7419 15.1201C99.0916 12.8137 97.289 11.0111 94.9826 10.3607C92.6762 9.71039 90.1981 10.3065 88.4392 11.9342L88.4628 11.9455ZM66.8107 48.1222L59.2647 50.9202L62.0044 43.3743L62.0976 43.2811L66.9388 48.0299L66.8107 48.1222ZM69.3648 45.5681L64.6168 40.7617L88.1141 17.252L92.9205 22.0584L69.3648 45.5681ZM95.7313 19.2016L95.3831 19.5498L90.5767 14.7434L90.9249 14.3951C91.5525 13.7132 92.4312 13.3164 93.3576 13.297C94.2848 13.2776 95.1789 13.6371 95.834 14.2923C96.4899 14.9483 96.8495 15.8423 96.83 16.7687C96.8106 17.6959 96.4138 18.5746 95.7311 19.2013L95.7313 19.2016Z" fill="black"/>
</svg>
